<?xml version="1.0" encoding="utf-8"?>
<!-- Generator: Adobe Illustrator 18.1.1, SVG Export Plug-In . SVG Version: 6.00 Build 0)  -->
<!DOCTYPE svg PUBLIC "-//W3C//DTD SVG 1.1//EN" "http://www.w3.org/Graphics/SVG/1.1/DTD/svg11.dtd">
<svg version="1.1" id="Ebene_1" xmlns="http://www.w3.org/2000/svg" xmlns:xlink="http://www.w3.org/1999/xlink" x="0px" y="0px"
	 width="180px" height="180px" viewBox="0 0 180 180" enable-background="new 0 0 180 180" xml:space="preserve">
<rect y="0" fill="#C0F3FF" width="180" height="180"/>
<g>
	<g>
		<path fill="#706F6F" d="M148.94,129.32c1.95,11.07-19.9,31.6-49.65,36.84c-29.75,5.24-56.14-6.78-58.09-17.85
			s20.13-4.08,49.89-9.33C120.83,133.75,146.99,118.25,148.94,129.32z"/>
	</g>
	<g>

			<ellipse transform="matrix(-0.9848 0.1736 -0.1736 -0.9848 212.7556 259.0956)" fill="#9D9D9C" cx="95.05" cy="138.85" rx="54.7" ry="20.35"/>
	</g>
	<g>
		<path fill="#878787" d="M123.27,152.14c16.53-6.37,27.03-15.12,25.67-22.81c-0.93-5.29-7.31-9.13-16.95-11.13l-5,2.51
			l-45.12,31.87L123.27,152.14z"/>
	</g>
	<g>
		<path fill="#FFFFFF" d="M138.17,126.83c1.6,9.03-16.75,19.81-40.97,24.09c-24.21,4.27-45.14,0.41-46.74-8.62
			c-1.6-9.03-27.26-81.57,29.08-91.5S136.57,117.8,138.17,126.83z"/>
	</g>
	<g>
		<path fill="#A2D9F0" d="M135.66,125.43c1.35,7.66-15.94,17.11-38.62,21.11s-42.16,1.03-43.51-6.62
			c-1.35-7.66-26.04-79.34,26.71-88.63S134.31,117.76,135.66,125.43z"/>
	</g>
	<g>
		<path fill="#009CB4" d="M135.66,125.43c-0.18-1.01-0.36-3.25-0.66-6.3c-11.16-2.42-26.62-2.44-43.29,0.5
			c-16.1,2.84-30.18,7.89-39.83,13.71c0.82,3.2,1.46,5.51,1.64,6.57c1.35,7.66,20.83,10.62,43.51,6.62
			C119.71,142.54,137.01,133.09,135.66,125.43z"/>
	</g>
	<g>
		<path fill="#007A8C" d="M92.33,124.51l-22.49,2.96c-3.52,0.47-5.46,4.34-3.7,7.43l1.81,3.2c0.68,1.21,1.85,2.07,3.19,2.41
			c3.58,0.88,11.54,2.06,23.97-0.13c12.61-2.22,19.93-6.17,23.05-8.22c1.15-0.76,1.93-1.97,2.15-3.34l0.6-3.59
			c0.58-3.5-2.55-6.49-6.03-5.72l-22.15,4.9C92.62,124.47,92.47,124.49,92.33,124.51z"/>
	</g>
	<g>
		<path fill="#F0869D" d="M120.5,99.15c0.08-0.84,0.07-1.7-0.06-2.58c-0.66-4.65-4.05-8.19-8.17-9.02
			c-1.41-8.53-8.95-14.48-17.03-13.34c-3.56,0.5-6.62,2.29-8.87,4.87c-2.63-1.39-5.65-2.01-8.76-1.56
			c-7.05,0.99-12.2,7.06-12.75,14.28c-4.09,1.27-6.93,5.19-7.03,9.7c-2.1,2.26-3.2,5.49-2.72,8.9c0.32,2.28,1.31,4.3,2.72,5.86
			c-2.21,2.26-3.4,5.59-2.9,9.1c0.82,5.8,5.91,9.88,11.35,9.11c2.47-0.35,4.59-1.64,6.1-3.49c2.15,2.88,5.63,4.55,9.27,4.04
			c3.88-0.55,6.89-3.4,8.01-7.09c2.17,2.31,5.27,3.58,8.52,3.12c3.26-0.46,5.91-2.55,7.33-5.4c2.13,2.04,5.05,3.11,8.08,2.68
			c4.73-0.67,8.17-4.77,8.47-9.63c3.72-1.95,5.97-6.27,5.32-10.91C126.79,103.65,124.02,100.39,120.5,99.15z"/>
	</g>
	<g>
		<path fill="#EA5284" d="M86.31,81.76c0,0-4.54,9.93,2.77,22.4c0,0,0.14-0.65-0.34-1.73c-2.23-5.08-3.07-12.25-2.33-19
			C86.49,82.64,86.7,82.33,86.31,81.76z"/>
	</g>
	<g>
		<g>
			<path fill="#EA5284" d="M102.22,93.72c-0.11,0-0.23-0.03-0.33-0.1c-0.26-0.18-0.32-0.54-0.14-0.8c2.01-2.86,1.31-6.83-1.56-8.83
				c-2.86-2.01-6.83-1.31-8.83,1.56c-0.18,0.26-0.54,0.32-0.8,0.14s-0.32-0.54-0.14-0.8c2.37-3.39,7.05-4.21,10.43-1.84
				c3.39,2.37,4.21,7.05,1.84,10.43C102.57,93.64,102.4,93.72,102.22,93.72z"/>
		</g>
		<g>
			<path fill="#EA5284" d="M108.21,99.83c-0.03,0-0.06,0-0.09-0.01c-0.31-0.05-0.52-0.34-0.47-0.65c0.19-1.22-0.09-2.45-0.81-3.45
				c-0.72-1-1.79-1.66-3.02-1.87c-2.52-0.41-4.91,1.3-5.32,3.83c-0.05,0.31-0.35,0.51-0.65,0.47c-0.31-0.05-0.52-0.34-0.47-0.65
				c0.51-3.15,3.48-5.28,6.63-4.77c1.52,0.25,2.86,1.07,3.76,2.33c0.9,1.25,1.25,2.78,1.01,4.3
				C108.74,99.63,108.49,99.83,108.21,99.83z"/>
		</g>
	</g>
	<g opacity="0.8">
		<path fill="#EAF6FE" d="M81.95,59.69c-13.19,2.39-22.01,7.73-24.98,14.88c7.81-3.03,28.27-6.05,44.04,10.7
			c10.28,10.92,16.22,7.51,19.64,0.74C118.63,73.35,111.68,54.3,81.95,59.69z"/>
	</g>
	<g>

			<ellipse transform="matrix(-0.9848 0.1736 -0.1736 -0.9848 167.8873 91.5752)" fill="#9D9D9C" cx="79.94" cy="53.13" rx="13.18" ry="4.9"/>
	</g>
	<g>
		<g>
			<path fill="#878787" d="M79.97,51.36l-0.09,1.21l11.15-3.75c-0.41-0.19-0.88-0.36-1.4-0.5L79.97,51.36z"/>
		</g>
		<g>
			<g>
				<path fill="#9D9D9C" d="M78.78,52.11l-2.94-16.66l1.95-0.34l2.94,16.66c0,0,0.25,0.64-0.84,0.81
					C78.8,52.74,78.78,52.11,78.78,52.11z"/>
			</g>
		</g>
		<g>
			<circle fill="#9D9D9C" cx="76.82" cy="35.29" r="3.51"/>
		</g>
	</g>
	<g>
		<g>
			<path fill="#EA5284" d="M67.13,111.23c-0.11,0-0.23-0.03-0.33-0.1c-3.39-2.37-4.21-7.05-1.84-10.43
				c2.37-3.39,7.05-4.21,10.43-1.84c0.26,0.18,0.32,0.54,0.14,0.8c-0.18,0.26-0.54,0.32-0.8,0.14c-2.86-2.01-6.83-1.31-8.83,1.56
				c-0.97,1.39-1.35,3.08-1.05,4.74c0.3,1.66,1.22,3.12,2.61,4.09c0.26,0.18,0.32,0.54,0.14,0.8
				C67.48,111.14,67.31,111.23,67.13,111.23z"/>
		</g>
		<g>
			<path fill="#EA5284" d="M63.58,119.02c-0.19,0-0.39-0.1-0.5-0.3c-0.75-1.35-0.93-2.91-0.52-4.39c0.42-1.48,1.39-2.71,2.74-3.48
				c2.78-1.56,6.3-0.56,7.87,2.21c0.15,0.27,0.06,0.63-0.22,0.78c-0.27,0.15-0.62,0.06-0.78-0.22c-1.25-2.23-4.08-3.02-6.32-1.78
				c-1.08,0.6-1.86,1.6-2.19,2.78c-0.33,1.19-0.18,2.44,0.42,3.52c0.15,0.27,0.06,0.63-0.22,0.78
				C63.77,119,63.67,119.02,63.58,119.02z"/>
		</g>
	</g>
	<g>
		<g>
			<path fill="#EA5284" d="M117.4,108.75c-0.11,0-0.23-0.03-0.33-0.1c-0.26-0.18-0.32-0.54-0.14-0.8c1.22-1.74,0.8-4.17-0.95-5.39
				c-1.74-1.22-4.16-0.8-5.39,0.95c-0.18,0.26-0.54,0.32-0.8,0.14c-0.26-0.18-0.32-0.54-0.14-0.8c1.58-2.26,4.72-2.82,6.98-1.23
				c2.26,1.58,2.82,4.72,1.23,6.98C117.75,108.67,117.58,108.75,117.4,108.75z"/>
		</g>
		<g>
			<path fill="#EA5284" d="M121.25,112.67c-0.03,0-0.06,0-0.09-0.01c-0.31-0.05-0.52-0.34-0.47-0.65c0.11-0.73-0.06-1.46-0.49-2.06
				c-0.43-0.6-1.07-1-1.8-1.12c-0.73-0.13-1.46,0.06-2.06,0.49c-0.6,0.43-1,1.07-1.12,1.8c-0.05,0.31-0.35,0.52-0.65,0.47
				c-0.31-0.05-0.52-0.34-0.47-0.65c0.17-1.03,0.73-1.94,1.57-2.54c0.84-0.6,1.88-0.85,2.92-0.68c1.03,0.17,1.94,0.73,2.54,1.57
				c0.62,0.84,0.85,1.88,0.68,2.92C121.77,112.47,121.53,112.67,121.25,112.67z"/>
		</g>
	</g>
	<g>
		<g>
			<path fill="#EA5284" d="M71.74,94.17c-0.13,0-0.26-0.05-0.36-0.14c-1.03-0.87-1.65-2.07-1.77-3.41c-0.11-1.33,0.3-2.63,1.16-3.66
				c1.78-2.11,4.95-2.38,7.06-0.6c0.24,0.21,0.27,0.56,0.07,0.8c-0.21,0.24-0.56,0.27-0.8,0.07c-1.63-1.38-4.08-1.16-5.45,0.47
				c-0.66,0.79-0.98,1.79-0.9,2.83c0.08,1.04,0.57,1.96,1.36,2.63c0.24,0.21,0.27,0.56,0.07,0.8C72.06,94.1,71.9,94.17,71.74,94.17z
				"/>
		</g>
		<g>
			<path fill="#EA5284" d="M80.04,90.36c-0.05,0-0.09,0-0.15-0.02c-2.09-0.54-3.35-2.68-2.82-4.77c0.54-2.09,2.67-3.35,4.77-2.82
				c0.31,0.08,0.49,0.39,0.41,0.7c-0.08,0.31-0.39,0.49-0.7,0.41c-1.48-0.38-3,0.51-3.37,1.99c-0.38,1.48,0.51,3,1.99,3.37
				c0.31,0.08,0.49,0.39,0.41,0.7C80.53,90.19,80.3,90.36,80.04,90.36z"/>
		</g>
	</g>
	<g>
		<g>
			<path fill="#EA5284" d="M102.69,117.83c-0.02,0-0.05,0-0.07,0c-1.8-0.02-3.49-0.74-4.75-2.03c-1.27-1.29-1.95-2.99-1.93-4.8
				c0-0.31,0.26-0.56,0.57-0.56l0,0c0.32,0,0.57,0.26,0.57,0.58c-0.01,1.49,0.56,2.92,1.61,3.99c1.05,1.07,2.45,1.66,3.96,1.69
				c0.02,0,0.05,0,0.06,0c1.47,0,2.87-0.57,3.92-1.61c1.07-1.05,1.66-2.45,1.69-3.96c0-0.31,0.26-0.56,0.57-0.56l0,0
				c0.32,0,0.57,0.26,0.57,0.58c-0.02,1.8-0.74,3.49-2.03,4.75C106.14,117.16,104.46,117.83,102.69,117.83z"/>
		</g>
		<g>
			<path fill="#EA5284" d="M93.22,112.79c-1.96,0-3.85-1.12-4.74-3.01c-0.14-0.28-0.01-0.63,0.27-0.76s0.63-0.01,0.76,0.27
				c0.96,2.04,3.39,2.92,5.43,1.96c0.99-0.47,1.73-1.29,2.11-2.3c0.38-1.03,0.32-2.13-0.15-3.12c-0.14-0.28-0.01-0.63,0.27-0.76
				c0.28-0.14,0.63-0.01,0.76,0.27c0.59,1.27,0.66,2.68,0.18,3.99c-0.48,1.31-1.44,2.36-2.69,2.95
				C94.71,112.63,93.96,112.79,93.22,112.79z"/>
		</g>
	</g>
	<g>
		<g>
			<path fill="#EA5284" d="M82.86,125.06c-0.11,0-0.23,0-0.33-0.01c-1.63-0.09-3.12-0.8-4.21-2.02c-0.21-0.24-0.19-0.59,0.05-0.81
				c0.24-0.21,0.59-0.19,0.81,0.05c0.89,0.98,2.1,1.56,3.42,1.64c1.31,0.07,2.59-0.38,3.58-1.27c0.98-0.89,1.56-2.1,1.64-3.42
				c0.07-1.32-0.38-2.59-1.27-3.58c-0.21-0.24-0.19-0.59,0.05-0.81c0.24-0.21,0.59-0.19,0.81,0.05c1.08,1.21,1.64,2.77,1.55,4.4
				s-0.8,3.12-2.02,4.21C85.8,124.51,84.37,125.06,82.86,125.06z"/>
		</g>
		<g>
			<path fill="#EA5284" d="M74.49,127.1c-0.6,0-1.21-0.11-1.79-0.35c-0.28-0.11-0.43-0.46-0.31-0.74c0.13-0.3,0.46-0.43,0.74-0.31
				c1.82,0.75,3.93-0.13,4.69-1.95c0.75-1.84-0.13-3.93-1.95-4.69c-0.28-0.11-0.43-0.46-0.31-0.74c0.13-0.3,0.46-0.43,0.74-0.31
				c2.41,0.99,3.57,3.76,2.58,6.17C78.12,126,76.35,127.1,74.49,127.1z"/>
		</g>
	</g>
	<g>
		<circle fill="#C6C6C6" cx="76.15" cy="34.01" r="1.22"/>
	</g>
	<g>
		<path fill="#B2B2B2" d="M80.85,55.87c-5.73,1.01-10.69,0.1-11.07-2.03c-0.1-0.56,0.13-1.14,0.62-1.71
			c-1.09,0.84-1.68,1.73-1.53,2.56c0.38,2.13,5.34,3.04,11.07,2.03c4.24-0.75,7.72-2.34,9.1-3.98
			C87.32,54.07,84.35,55.26,80.85,55.87z"/>
	</g>
	<g>
		<polygon fill="#C6C6C6" points="76.42,38.79 78.55,50.93 77.03,38.88 		"/>
	</g>
	<g>
		<g>
			<path fill="#F7A600" d="M79.91,26.02c0.58,2.76,4.14,8.97-3,10.49c-7.14,1.5-6.41-5.61-6.99-8.37c-0.58-2.76,1.19-5.47,3.94-6.05
				C76.61,21.49,79.31,23.26,79.91,26.02z"/>
		</g>
		<g>
			<circle fill="#EF7D00" cx="75.87" cy="31.55" r="3.51"/>
		</g>
		<g>
			<path fill="#F7A600" d="M91.26,24.97l-5.47,1.81c-1.21,0.4-1.15,2.12,0.07,2.45l4.77,1.28c0.7,0.18,1.41-0.24,1.57-0.95
				l0.71-3.09C93.13,25.49,92.21,24.66,91.26,24.97z"/>
		</g>
		<g>
			<path fill="#F7A600" d="M58.75,33.41l5.24-1.37c1.3-0.34,2.17,1.29,1.17,2.19l-3.34,3.02c-0.48,0.43-1.21,0.44-1.7,0.01
				l-1.9-1.65C57.45,34.93,57.76,33.67,58.75,33.41z"/>
		</g>
		<g>
			<path fill="#F7A600" d="M61.23,19.82l4.22,3c0.99,0.71,0.54,2.27-0.68,2.31l-4.51,0.21c-0.78,0.03-1.4-0.63-1.33-1.39l0.3-3.2
				C59.31,19.76,60.42,19.25,61.23,19.82z"/>
		</g>
		<g>
			<path fill="#F7A600" d="M83.19,15.44l-1.36,4.31c-0.39,1.24,1.12,2.21,2.07,1.33l2.95-2.69c0.54-0.49,0.56-1.32,0.05-1.85
				l-1.6-1.62C84.65,14.23,83.49,14.52,83.19,15.44z"/>
		</g>
		<g opacity="0.8">
			<path fill="#FFFFFF" d="M74.41,23.42c-1.49,0.24-2.5,0.82-2.85,1.62c0.89-0.32,3.2-0.62,4.94,1.31c1.13,1.25,1.81,0.88,2.21,0.13
				C78.51,25.04,77.77,22.88,74.41,23.42z"/>
		</g>
		<g>
			<path fill="#F7A600" d="M70.12,13.16l1.74,3.73c0.56,1.19,2.33,0.87,2.43-0.43l0.34-4.2c0.07-0.85-0.71-1.54-1.55-1.36L71,11.36
				C70.2,11.55,69.77,12.42,70.12,13.16z"/>
		</g>
		<g opacity="0.8">

				<ellipse transform="matrix(-0.984 0.1782 -0.1782 -0.984 149.0346 44.7156)" fill="#FFFFFF" cx="72.51" cy="29.05" rx="1.01" ry="2.49"/>
		</g>
	</g>
</g>
</svg>
