<?xml version="1.0" encoding="UTF-8" standalone="no"?>
<!-- Generator: Adobe Illustrator 18.1.1, SVG Export Plug-In . SVG Version: 6.00 Build 0)  -->

<svg
   xmlns:dc="http://purl.org/dc/elements/1.1/"
   xmlns:cc="http://creativecommons.org/ns#"
   xmlns:rdf="http://www.w3.org/1999/02/22-rdf-syntax-ns#"
   xmlns:svg="http://www.w3.org/2000/svg"
   xmlns="http://www.w3.org/2000/svg"
   xmlns:sodipodi="http://sodipodi.sourceforge.net/DTD/sodipodi-0.dtd"
   xmlns:inkscape="http://www.inkscape.org/namespaces/inkscape"
   version="1.1"
   id="Ebene_1"
   x="0px"
   y="0px"
   width="180px"
   height="180px"
   viewBox="0 0 180 180"
   enable-background="new 0 0 180 180"
   xml:space="preserve"
   inkscape:version="0.91 r13725"
   sodipodi:docname="_windows-tile-icon.svg"><metadata
     id="metadata3753"><rdf:RDF><cc:Work
         rdf:about=""><dc:format>image/svg+xml</dc:format><dc:type
           rdf:resource="http://purl.org/dc/dcmitype/StillImage" /><dc:title></dc:title></cc:Work></rdf:RDF></metadata><defs
     id="defs3751" /><sodipodi:namedview
     pagecolor="#000000"
     bordercolor="#666666"
     borderopacity="1"
     objecttolerance="10"
     gridtolerance="10"
     guidetolerance="10"
     inkscape:pageopacity="1"
     inkscape:pageshadow="2"
     inkscape:window-width="1919"
     inkscape:window-height="1140"
     id="namedview3749"
     showgrid="false"
     inkscape:zoom="2.8284271"
     inkscape:cx="84.128911"
     inkscape:cy="59.847205"
     inkscape:window-x="4"
     inkscape:window-y="0"
     inkscape:window-maximized="0"
     inkscape:current-layer="Ebene_1" /><path
     style="fill:#ffffff"
     d="m 91.095703,118.89844 -0.01367,0.002 c -0.0435,0.0498 -0.09684,0.10685 -0.138672,0.15234 0.05306,-0.0482 0.101147,-0.10352 0.152344,-0.15429 z m 43.837887,0.0762 c 0.4236,2.00516 0.36822,4.35389 0.72657,6.45508 1.35,7.66 -15.95086,17.10961 -38.630863,21.09961 -22.68,4 -42.159766,1.04086 -43.509766,-6.61914 -0.164128,-0.96654 -0.734601,-3.0774 -1.451172,-5.84961 l -0.271484,-0.92188 c -6.702292,4.44755 -10.438413,9.15849 -10.689453,13.47852 -0.03218,0.41974 -0.0123,0.87739 0.05469,1.36914 0.0023,0.12285 0.0075,0.24525 0.01563,0.36719 0.110985,0.5637 0.286273,1.11563 0.525391,1.65429 4.163525,10.55266 29.352681,21.12543 57.585937,16.15235 29.75,-5.24001 51.60078,-25.76991 49.65039,-36.83985 -0.079,-0.4484 -0.21207,-0.8375 -0.36914,-1.20117 -1.43878,-3.96268 -6.19818,-7.15424 -13.63672,-9.14453 z"
     id="ellipse3585"
     inkscape:connector-curvature="0"
     sodipodi:nodetypes="ccccccccccccccsscc" /><path
     style="fill:#ffffff"
     d="M 96.691406 72.085938 C 96.191989 72.102898 95.688594 72.1475 95.183594 72.21875 C 91.623594 72.71875 88.564453 74.507891 86.314453 77.087891 C 83.684453 75.697891 80.664687 75.077344 77.554688 75.527344 C 70.504688 76.517344 65.354687 82.588594 64.804688 89.808594 C 60.714692 91.078594 57.873438 94.99781 57.773438 99.507812 C 55.673437 101.76781 54.574687 104.9982 55.054688 108.4082 C 55.374688 110.6882 56.363438 112.70758 57.773438 114.26758 C 55.563437 116.52758 54.375 119.85719 54.875 123.36719 C 55.695 129.16719 60.784609 133.24852 66.224609 132.47852 C 68.694609 132.12852 70.814219 130.83828 72.324219 128.98828 C 74.474219 131.86828 77.95375 133.53734 81.59375 133.02734 C 85.47375 132.47734 88.483516 129.6275 89.603516 125.9375 C 91.773516 128.2475 94.875 129.51859 98.125 129.05859 C 101.38501 128.59859 104.03508 126.5082 105.45508 123.6582 C 107.58508 125.6982 110.50516 126.76789 113.53516 126.33789 C 118.26516 125.66789 121.70391 121.56898 122.00391 116.70898 C 125.72391 114.75898 127.97422 110.43883 127.32422 105.79883 C 126.73422 101.65883 123.96336 98.398203 120.44336 97.158203 C 120.52336 96.318203 120.51477 95.458125 120.38477 94.578125 C 119.72477 89.928125 116.33484 86.388594 112.21484 85.558594 C 110.89297 77.561718 104.18266 71.831531 96.691406 72.085938 z M 96.689453 81.697266 C 98.132207 81.721523 99.582109 82.162031 100.84961 83.050781 C 103.97427 85.235281 104.90936 89.379473 103.18164 92.662109 C 103.45566 92.667058 103.73136 92.685393 104.00977 92.730469 C 105.52977 92.980469 106.86953 93.800547 107.76953 95.060547 C 108.66953 96.310547 109.0193 97.839375 108.7793 99.359375 C 108.7393 99.629375 108.49094 99.830078 108.21094 99.830078 C 108.18094 99.830078 108.14914 99.830312 108.11914 99.820312 C 107.80914 99.770313 107.60039 99.479922 107.65039 99.169922 C 107.84039 97.949922 107.55984 96.720703 106.83984 95.720703 C 106.11984 94.720703 105.05031 94.059609 103.82031 93.849609 C 101.30031 93.439609 98.91 95.149687 98.5 97.679688 C 98.45 97.989688 98.149609 98.190391 97.849609 98.150391 C 97.539609 98.100391 97.330859 97.81 97.380859 97.5 C 97.765716 95.122941 99.551009 93.327816 101.75781 92.808594 C 103.75774 89.949472 103.05556 85.987521 100.18945 83.990234 C 97.329453 81.980234 93.359375 82.680781 91.359375 85.550781 C 91.179375 85.810781 90.820547 85.869453 90.560547 85.689453 C 90.300547 85.509453 90.239922 85.150625 90.419922 84.890625 C 91.901172 82.771875 94.284863 81.656836 96.689453 81.697266 z M 86.310547 81.759766 C 86.700547 82.329766 86.490156 82.639687 86.410156 83.429688 C 85.670156 90.179687 86.510234 97.349688 88.740234 102.42969 C 89.220234 103.50969 89.080078 104.16016 89.080078 104.16016 C 81.770078 91.690156 86.310547 81.759766 86.310547 81.759766 z M 81.054688 82.632812 C 81.314961 82.645 81.577344 82.68375 81.839844 82.75 C 82.149844 82.83 82.33 83.139219 82.25 83.449219 C 82.17 83.759219 81.860781 83.939375 81.550781 83.859375 C 80.070781 83.479375 78.549688 84.369609 78.179688 85.849609 C 77.799688 87.329609 78.689922 88.850703 80.169922 89.220703 C 80.479922 89.300703 80.660078 89.609922 80.580078 89.919922 C 80.530078 90.189922 80.299062 90.359375 80.039062 90.359375 C 79.989063 90.359375 79.950625 90.359844 79.890625 90.339844 C 78.338484 89.938812 77.247295 88.654161 77.003906 87.164062 C 75.37493 85.867964 72.994944 86.099495 71.650391 87.699219 C 70.990391 88.489219 70.67 89.489297 70.75 90.529297 C 70.83 91.569297 71.319375 92.490156 72.109375 93.160156 C 72.349375 93.370156 72.379687 93.720937 72.179688 93.960938 C 72.059687 94.100938 71.900234 94.169922 71.740234 94.169922 C 71.610234 94.169922 71.480859 94.119297 71.380859 94.029297 C 70.350859 93.159297 69.729375 91.959141 69.609375 90.619141 C 69.499375 89.289141 69.909531 87.990937 70.769531 86.960938 C 72.337137 85.102708 74.982915 84.673107 77.033203 85.8125 C 77.048401 85.731618 77.049815 85.651141 77.070312 85.570312 C 77.542813 83.741563 79.232773 82.5475 81.054688 82.632812 z M 71.228516 97.505859 C 72.67127 97.530117 74.123125 97.970625 75.390625 98.859375 C 75.650625 99.039375 75.709297 99.400156 75.529297 99.660156 C 75.349297 99.920156 74.990469 99.980781 74.730469 99.800781 C 71.870469 97.790781 67.900391 98.489375 65.900391 101.35938 C 64.930391 102.74938 64.549609 104.43961 64.849609 106.09961 C 65.146545 107.74265 66.053643 109.18823 67.419922 110.1582 C 69.676363 109.88383 71.981445 110.96368 73.169922 113.06055 C 73.319922 113.33055 73.229219 113.68984 72.949219 113.83984 C 72.679219 113.98984 72.329922 113.89914 72.169922 113.61914 C 70.919922 111.38914 68.089609 110.59984 65.849609 111.83984 C 64.769609 112.43984 63.990156 113.43914 63.660156 114.61914 C 63.330156 115.80914 63.480078 117.06062 64.080078 118.14062 C 64.230078 118.41062 64.139375 118.76992 63.859375 118.91992 C 63.769375 118.99992 63.670078 119.01953 63.580078 119.01953 C 63.390078 119.01953 63.190078 118.9207 63.080078 118.7207 C 62.330078 117.3707 62.150547 115.81008 62.560547 114.33008 C 62.980547 112.85008 63.950781 111.61961 65.300781 110.84961 C 65.540983 110.71482 65.787594 110.60684 66.037109 110.50977 C 63.305094 108.00997 62.782007 103.80672 64.960938 100.69922 C 66.442188 98.580469 68.823926 97.46543 71.228516 97.505859 z M 113.8457 100.61523 C 114.81203 100.63053 115.78336 100.92328 116.63086 101.51953 C 118.63583 102.92123 119.29767 105.54953 118.3125 107.70312 C 118.40511 107.71165 118.49709 107.70554 118.58984 107.7207 C 119.61984 107.8907 120.53086 108.44906 121.13086 109.28906 C 121.75086 110.12906 121.98055 111.17094 121.81055 112.21094 C 121.77055 112.47094 121.53 112.66992 121.25 112.66992 C 121.22 112.66992 121.19016 112.67016 121.16016 112.66016 C 120.85016 112.61016 120.63945 112.31977 120.68945 112.00977 C 120.79945 111.27977 120.62922 110.54922 120.19922 109.94922 C 119.76922 109.34922 119.13039 108.95008 118.40039 108.83008 C 117.67039 108.70008 116.93984 108.89031 116.33984 109.32031 C 115.73984 109.75031 115.3407 110.38914 115.2207 111.11914 C 115.1707 111.42914 114.87031 111.63984 114.57031 111.58984 C 114.26031 111.53984 114.04961 111.24945 114.09961 110.93945 C 114.26961 109.90945 114.82992 109.00039 115.66992 108.40039 C 116.0608 108.1212 116.49774 107.92721 116.95508 107.80664 C 118.13936 106.06972 117.71649 103.67119 115.98047 102.46094 C 114.24047 101.24094 111.81984 101.66016 110.58984 103.41016 C 110.40984 103.67016 110.04906 103.73078 109.78906 103.55078 C 109.52906 103.37078 109.47039 103.01 109.65039 102.75 C 110.63789 101.3375 112.23516 100.58975 113.8457 100.61523 z M 97.388672 105.01367 C 97.611328 105.0043 97.832188 105.12984 97.929688 105.33984 C 98.519688 106.60984 98.589375 108.02008 98.109375 109.33008 C 97.874496 109.9711 97.522562 110.54598 97.080078 111.03906 C 97.075176 112.52201 97.64405 113.94445 98.689453 115.00977 C 99.739453 116.07977 101.14039 116.66922 102.65039 116.69922 L 102.71094 116.69922 C 104.18094 116.69922 105.58086 116.12984 106.63086 115.08984 C 107.70086 114.03984 108.29031 112.64086 108.32031 111.13086 C 108.32031 110.82086 108.58062 110.57031 108.89062 110.57031 C 109.21062 110.57031 109.46094 110.83039 109.46094 111.15039 C 109.44094 112.95039 108.71969 114.64039 107.42969 115.90039 C 106.13969 117.16039 104.45945 117.83008 102.68945 117.83008 L 102.61914 117.83008 C 100.81914 117.81008 99.129141 117.09078 97.869141 115.80078 C 96.824758 114.73995 96.187179 113.3997 96.001953 111.95117 C 95.814987 112.07046 95.623013 112.18344 95.419922 112.2793 C 94.709922 112.6293 93.960703 112.78906 93.220703 112.78906 C 91.260703 112.78906 89.370469 111.6693 88.480469 109.7793 C 88.340469 109.4993 88.47 109.14953 88.75 109.01953 C 89.03 108.88953 89.379766 109.00906 89.509766 109.28906 C 90.469766 111.32906 92.899453 112.21 94.939453 111.25 C 95.929453 110.78 96.670781 109.95922 97.050781 108.94922 C 97.430781 107.91922 97.370391 106.82008 96.900391 105.83008 C 96.760391 105.55008 96.889922 105.20031 97.169922 105.07031 C 97.239922 105.03531 97.314453 105.0168 97.388672 105.01367 z M 87.011719 114.68555 C 87.156719 114.6943 87.300156 114.76086 87.410156 114.88086 C 88.490156 116.09086 89.050938 117.6493 88.960938 119.2793 C 88.870937 120.9093 88.159453 122.40023 86.939453 123.49023 C 85.799453 124.51023 84.369375 125.06055 82.859375 125.06055 C 82.749375 125.06055 82.629297 125.06078 82.529297 125.05078 C 81.226042 124.97882 80.016758 124.50374 79.025391 123.69531 C 78.978464 123.85723 78.946332 124.0203 78.880859 124.17969 C 78.120859 125.99969 76.350234 127.09961 74.490234 127.09961 C 73.890234 127.09961 73.279219 126.99 72.699219 126.75 C 72.419219 126.64 72.270625 126.28977 72.390625 126.00977 C 72.520625 125.70977 72.850859 125.57922 73.130859 125.69922 C 74.950859 126.44922 77.060313 125.57 77.820312 123.75 C 78.570312 121.91 77.689141 119.82055 75.869141 119.06055 C 75.589141 118.95055 75.440547 118.60031 75.560547 118.32031 C 75.690547 118.02031 76.020781 117.88977 76.300781 118.00977 C 78.101169 118.74934 79.202463 120.48225 79.232422 122.31641 C 80.117643 123.26456 81.303393 123.8316 82.599609 123.91016 C 83.909609 123.98016 85.189688 123.53063 86.179688 122.64062 C 87.159688 121.75062 87.740313 120.5407 87.820312 119.2207 C 87.890312 117.9007 87.440781 116.63062 86.550781 115.64062 C 86.340781 115.40063 86.359609 115.05008 86.599609 114.83008 C 86.719609 114.72508 86.866719 114.6768 87.011719 114.68555 z "
     id="path3609" /><path
     style="fill:#ffffff"
     d="M 89.464844 49.917969 C 86.364551 49.897783 83.060312 50.180156 79.539062 50.800781 C 23.199062 60.730781 48.860937 133.27078 50.460938 142.30078 C 52.060937 151.33078 72.989219 155.18992 97.199219 150.91992 C 121.41922 146.63992 139.76992 135.86008 138.16992 126.83008 C 136.66992 118.36445 135.96924 50.220752 89.464844 49.917969 z M 89.541016 50.507812 C 133.15564 51.204419 134.39453 118.23906 135.66016 125.42969 C 137.01016 133.08969 119.71906 142.53906 97.039062 146.53906 C 74.359062 150.53906 54.879297 147.56992 53.529297 139.91992 C 52.179297 132.25992 27.490234 60.579062 80.240234 51.289062 C 83.537109 50.708438 86.633374 50.461372 89.541016 50.507812 z "
     id="path3593" /><path
     style="fill:#ffffff"
     d="M 120.81055 123.13867 C 119.35842 125.87622 116.76817 127.87987 113.58984 128.33008 C 110.55984 128.76008 107.63977 127.69039 105.50977 125.65039 C 104.08977 128.50039 101.43969 130.59078 98.179688 131.05078 C 94.929687 131.51078 91.830156 130.23969 89.660156 127.92969 C 88.540156 131.61969 85.530391 134.46953 81.650391 135.01953 C 78.010391 135.52953 74.530859 133.86047 72.380859 130.98047 C 70.870859 132.83047 68.749297 134.1207 66.279297 134.4707 C 66.167264 134.48656 66.057014 134.48823 65.945312 134.5 C 66.006974 134.634 66.065725 134.76889 66.140625 134.90039 L 67.949219 138.09961 C 68.629219 139.30961 69.800625 140.16977 71.140625 140.50977 C 74.720625 141.38977 82.679375 142.57086 95.109375 140.38086 C 107.71937 138.16086 115.04016 134.21016 118.16016 132.16016 C 119.31016 131.40016 120.09055 130.19031 120.31055 128.82031 L 120.91016 125.23047 C 121.03116 124.50027 120.98199 123.79496 120.81055 123.13867 z "
     id="path3605" /><g
     id="g3611" /><g
     id="g3615"><g
       id="g3617" /><g
       id="g3621" /></g><path
     style="fill:#ffffff"
     d="m 84.210938,47.794922 c -1.643996,0.03034 -3.386082,0.203687 -5.123047,0.509766 -7.168129,1.263629 -12.598296,4.448277 -12.128907,7.113281 0.470345,2.664783 6.662074,3.800647 13.830078,2.537109 7.168129,-1.263629 12.598296,-4.448277 12.128907,-7.113281 -0.342478,-1.938318 -3.771716,-3.138321 -8.707031,-3.046875 z"
     id="ellipse3631"
     inkscape:connector-curvature="0"
     sodipodi:nodetypes="cccscc" /><g
     id="g3639"
     transform="translate(0.65459819,2.8696618)"
     style="fill:#ffffff"><g
       id="g3641"
       style="fill:#ffffff"><path
         d="m 78.78,52.11 -2.94,-16.66 1.95,-0.34 2.94,16.66 c 0,0 0.25,0.64 -0.84,0.81 -1.09,0.16 -1.11,-0.47 -1.11,-0.47 z"
         id="path3643"
         inkscape:connector-curvature="0"
         style="fill:#ffffff" /></g></g><g
     id="g3649"><g
       id="g3651" /><g
       id="g3655" /></g><g
     id="g3659"><g
       id="g3661" /><g
       id="g3665" /></g><g
     id="g3669"><g
       id="g3671" /><g
       id="g3675" /></g><g
     id="g3679"><g
       id="g3681" /><g
       id="g3685" /></g><g
     id="g3689"><g
       id="g3691" /><g
       id="g3695" /></g><path
     style="fill:#ffffff"
     inkscape:connector-curvature="0"
     id="path3715"
     d="m 79.91,26.02 c 0.58,2.76 4.14,8.97 -3,10.49 -7.14,1.5 -6.41,-5.61 -6.99,-8.37 -0.58,-2.76 1.19,-5.47 3.94,-6.05 2.75,-0.6 5.45,1.17 6.05,3.93 z" /><g
     id="g3721"
     style="fill:#ffffff"><path
       d="m 91.26,24.97 -5.47,1.81 c -1.21,0.4 -1.15,2.12 0.07,2.45 l 4.77,1.28 c 0.7,0.18 1.41,-0.24 1.57,-0.95 l 0.71,-3.09 c 0.22,-0.98 -0.7,-1.81 -1.65,-1.5 z"
       id="path3723"
       inkscape:connector-curvature="0"
       style="fill:#ffffff" /></g><g
     id="g3725"
     style="fill:#ffffff"><path
       d="m 58.75,33.41 5.24,-1.37 c 1.3,-0.34 2.17,1.29 1.17,2.19 l -3.34,3.02 c -0.48,0.43 -1.21,0.44 -1.7,0.01 l -1.9,-1.65 c -0.77,-0.68 -0.46,-1.94 0.53,-2.2 z"
       id="path3727"
       inkscape:connector-curvature="0"
       style="fill:#ffffff" /></g><g
     id="g3729"
     style="fill:#ffffff"><path
       d="m 61.23,19.82 4.22,3 c 0.99,0.71 0.54,2.27 -0.68,2.31 l -4.51,0.21 c -0.78,0.03 -1.4,-0.63 -1.33,-1.39 l 0.3,-3.2 c 0.08,-0.99 1.19,-1.5 2,-0.93 z"
       id="path3731"
       inkscape:connector-curvature="0"
       style="fill:#ffffff" /></g><g
     id="g3733"
     style="fill:#ffffff"><path
       d="m 83.19,15.44 -1.36,4.31 c -0.39,1.24 1.12,2.21 2.07,1.33 l 2.95,-2.69 c 0.54,-0.49 0.56,-1.32 0.05,-1.85 l -1.6,-1.62 c -0.65,-0.69 -1.81,-0.4 -2.11,0.52 z"
       id="path3735"
       inkscape:connector-curvature="0"
       style="fill:#ffffff" /></g><g
     id="g3741"
     style="fill:#ffffff"><path
       d="m 70.12,13.16 1.74,3.73 c 0.56,1.19 2.33,0.87 2.43,-0.43 l 0.34,-4.2 C 74.7,11.41 73.92,10.72 73.08,10.9 L 71,11.36 c -0.8,0.19 -1.23,1.06 -0.88,1.8 z"
       id="path3743"
       inkscape:connector-curvature="0"
       style="fill:#ffffff" /></g><path
     inkscape:connector-curvature="0"
     style="fill:#ffffff"
     d="m 80.599502,36.240611 c -0.67622,0.749858 -1.73575,1.356397 -3.38281,1.707032 -1.42158,0.29865 -2.52055,0.246523 -3.39063,-0.03516 a 3.51,3.51 0 0 0 3.30078,2.326172 3.51,3.51 0 0 0 3.50977,-3.511719 3.51,3.51 0 0 0 -0.0371,-0.486328 z"
     id="circle3647" /></svg>
